<svg xmlns="http://www.w3.org/2000/svg" viewBox="0 0 340 340"><g data-name="Layer 8"><path d="m276.252 147.246-.587-12.822q-6.573-.461-13.144 4.046l-.7 13.023a11.473 11.473 0 0 1-.305 5.658s-11.811 3.384-7.053 21a14.119 14.119 0 0 1-1.573 10.089c-4.015 7.662-11.747 22.886-16.889 35.94 0 0-28.8-52.418-51.2-58.591 0 0-15.5-.639-25.758-8.973a12.252 12.252 0 0 1-4.416-9.534v-9.954l-30.924.492v4.388a19.434 19.434 0 0 1-9.972 16.955 89.61 89.61 0 0 1-26.691 9.944 25.351 25.351 0 0 0-15.154 9.236c-12.078 15.266-38.2 49.379-55.563 79.972a16.151 16.151 0 0 0 2.277 19.02c7.8 8.325 22.365 20.711 46.7 31.065v6.1a21.224 21.224 0 0 0-6.963 2.5 7.061 7.061 0 0 0 3.5 13.188h29.739v-23.45S80.283 290.26 50.325 264.74c0 0 6.2-19.706 28.678-31.532 5.756 5.783 7.67 19.018 7.67 19.018l104.937-3.39s-.351-10.928 7.326-16.686c0 0 17.352 16.062 31.5 28.114a14.909 14.909 0 0 0 9.669 3.551h2.829a14.939 14.939 0 0 0 13.244-8.035c4.874-9.334 14.324-31.254 19.8-60.645a12.81 12.81 0 0 1 4.105-7.251l6.8-6.008c3.482-3.077 7-7.994 7.1-12.64.165-7.851-1.603-21.99-17.731-21.99z" style="fill:#ffd4ca"/><path d="M235.838 251.6c-12.143-8.7-47.81-26.49-44.959-83.341a25.8 25.8 0 0 0-6.081-2.667 54.97 54.97 0 0 1-10.109-1.623l-7.408 52.983-28.119 11.98s-24.773-3.5-28.459-4.792c-2.7-.943-6.221-39.338-7.922-59.916a82.894 82.894 0 0 1-15.9 4.715l-.007.009c.506 5.1 2.061 25.757-3.381 46.13a15.075 15.075 0 0 1-7.358 9.324c-7.59 4.132-22.248 14.146-36.017 35.122 0 0 4.9.631 10.206 5.221 0 0 6.2-19.706 28.678-31.532 5.756 5.783 7.67 19.018 7.67 19.018l104.937-3.39s-.351-10.928 7.326-16.686c0 0 17.349 16.059 31.5 28.11a14.913 14.913 0 0 0 9.673 3.555h2.829a14.939 14.939 0 0 0 13.244-8.035c.36-.69.748-1.457 1.155-2.283-.001-.002-9.152 6.938-21.498-1.902z" style="fill:#f99c9c"/><path d="M138.77 196.6c-18.261 0-25.289-10.593-27.985-20.588H103.8l-4.5 10.912 2.088 16.387 14.1 13.877 52.555-4.872 10.63-25.983-3.187-10.321h-6.243c-3.543 9.776-11.705 20.588-30.473 20.588zM123.7 137.618c11.1 4.941 21.486 3.808 30.924-.492V122.9l-30.924.555z" style="fill:#f99c9c"/><path d="M184.8 165.587a6.876 6.876 0 0 0-4.7-7.2 24.089 24.089 0 0 0-7.784-1.231 6.868 6.868 0 0 0-6.721 6.809c-.135 12.35-2.993 41.7-27.111 41.7s-26.977-29.35-27.112-41.7a6.867 6.867 0 0 0-6.72-6.809 24.089 24.089 0 0 0-7.784 1.231 6.877 6.877 0 0 0-4.7 7.2c3.383 35.869.116 56.315-3.717 67.622l12.5 96.775h75.056l12.5-96.775c-3.825-11.309-7.091-31.753-3.707-67.622z" style="fill:#797996"/><path d="M188.518 233.208a43.785 43.785 0 0 0 3.905 8.678 18.789 18.789 0 0 1 2.7 11.513l-4.887 54.055a6.843 6.843 0 0 0 2.654 6.073 6.739 6.739 0 0 1 2.625 6.339c-1.7 11.024-10.223 10.118-10.223 10.118h-9.281c-3.839-48.784 6.736-83.202 12.507-96.776zM88.449 233.208a43.792 43.792 0 0 1-3.9 8.678 18.782 18.782 0 0 0-2.7 11.513l4.887 54.055a6.841 6.841 0 0 1-2.655 6.073 6.743 6.743 0 0 0-2.625 6.339c1.7 11.024 10.224 10.118 10.224 10.118h9.281c3.839-48.784-6.74-83.202-12.512-96.776z" style="fill:#ff6d8d"/><path d="M147.353 280.533v-46.021H130.17s-2.581 9.743-9.479 14.273v13.795h9.479v17.953h-9.778v17.184h36.739v-17.184z" style="fill:#fff"/><path d="M107.7 106.255s-9.171 2.712-14.054-4.432a11.988 11.988 0 0 1-1.972-6.784v-18.05H107.7zM169.367 106.255s9.171 2.712 14.054-4.432a11.988 11.988 0 0 0 1.972-6.784v-18.05h-16.026z" style="fill:#f99c9c"/><path d="M105.972 82.656h-7.964A16.835 16.835 0 0 1 81.181 65c.819-16.289 8.233-39.533 41.272-50.4 0 0 25.4-8.306 34.45 8.043 0 0 41.457 0 35.034 42.625s-53.453 14.306-53.453 14.306-11.624 16.681-32.512 3.082z" style="fill:#ffc676"/><path d="M149.787 38.841c-1.861 25.806-18.092 43.894-43.815 53.034v7.679a32.512 32.512 0 0 0 32.512 32.512A32.512 32.512 0 0 0 171 99.554V75.432s-.47-21.442-21.213-36.591z" style="fill:#ffd4ca"/><path d="M138.1 118.411c-7.224 0-10.811-3.147-12.307-5.024a3.5 3.5 0 0 1 5.474-4.363c.711.892 2.543 2.387 6.833 2.387 4.5 0 6.859-1.682 7.867-2.684a3.5 3.5 0 1 1 4.938 4.961c-2.165 2.155-6.144 4.723-12.805 4.723zM129.136 97.657a3.5 3.5 0 0 1-3.5-3.5V90.91a3.5 3.5 0 0 1 7 0v3.247a3.5 3.5 0 0 1-3.5 3.5zM147.926 97.657a3.5 3.5 0 0 1-3.5-3.5V90.91a3.5 3.5 0 0 1 7 0v3.247a3.5 3.5 0 0 1-3.5 3.5z" style="fill:#f99c9c"/><path d="M105.972 82.656v9.219c44.129-3.092 43.815-53.034 43.815-53.034s-3.262 38.921-43.815 43.815zM275.665 134.424l-.24-5.223c0-3.932-2.491-7.411-6.423-7.411s-5.974 3.342-5.974 7.274l-.507 9.406z" style="fill:#f99c9c"/><path d="M325.8 67.75a57.635 57.635 0 0 1-20.119 43.814l-5.757 4.358a57.925 57.925 0 0 1-45.439 8l-6.693-2.048a57.789 57.789 0 0 1-19.918-12.6L223.053 104a57.507 57.507 0 0 1-12.724-33.6l.11-7.107a57.441 57.441 0 0 1 9.273-27.2l4.188-5.613a57.879 57.879 0 0 1 23.905-16.854l6.7-2.048a57.889 57.889 0 0 1 49.715 11.14l5.215 4.744a57.589 57.589 0 0 1 15.8 32.181l.556 7.077c.009.342.009.686.009 1.03z" style="fill:#fe9a67"/><path d="M132.228 179.426a3.481 3.481 0 0 1-1.641-.411 59.219 59.219 0 0 0-7.126-3.144 3.5 3.5 0 1 1 2.405-6.574 65.262 65.262 0 0 1 8.008 3.538 3.5 3.5 0 0 1-1.646 6.591zM145.295 179.426a3.5 3.5 0 0 1-1.647-6.591 64.879 64.879 0 0 1 7.423-3.32 3.5 3.5 0 0 1 2.465 6.552 57.672 57.672 0 0 0-6.6 2.948 3.478 3.478 0 0 1-1.641.411z" style="fill:#f99c9c"/><path d="M325.775 66.72a58.1 58.1 0 0 0-.552-7.076 264.674 264.674 0 0 1-62.659 8.2v-.122c0-3.014-.068-6.054-.2-9.036a3.5 3.5 0 1 0-6.992.316c.13 2.877.195 5.811.195 8.72v.095a266.244 266.244 0 0 1-45.106-4.531 58.225 58.225 0 0 0-.188 4.46c0 .887.027 1.768.067 2.646a273.478 273.478 0 0 0 45.1 4.424q-.342 9.408-1.593 18.691a69.932 69.932 0 0 0-30.776 10.477 58.147 58.147 0 0 0 4.823 5.272 63.171 63.171 0 0 1 24.851-8.6 190.571 190.571 0 0 1-4.941 21.2 57.254 57.254 0 0 0 6.694 2.041 197.582 197.582 0 0 0 5.4-23.59c13.741.2 27.179 5.448 40.027 15.6a57.913 57.913 0 0 0 5.752-4.362c-14.22-11.645-29.249-17.755-44.759-18.207q1.182-9.18 1.516-18.489a271.81 271.81 0 0 0 63.341-8.129zM253.8 41.692c-10.169-.963-20.187-4.717-29.893-11.205a58.107 58.107 0 0 0-4.186 5.608c12.633 8.521 25.846 12.851 39.342 12.851 17.585 0 34.506-7.226 50.358-21.475a57.982 57.982 0 0 0-5.213-4.743c-13.808 12.245-28.359 18.684-43.324 19.166a198.384 198.384 0 0 0-6.378-30.3 57.565 57.565 0 0 0-6.7 2.04 191.239 191.239 0 0 1 5.994 28.058z" style="fill:#e55d34"/><path d="M61.8 310.5v1.032a24.929 24.929 0 0 0-5.209 2.233 10.561 10.561 0 0 0 5.249 19.722l124.083.032c4.307 0 11.436-2.651 13.048-13.118a10.219 10.219 0 0 0-3.958-9.651 3.327 3.327 0 0 1-1.294-2.978l4.885-54.042a21.9 21.9 0 0 0-.97-8.812l3.57-6.759c5.481 5.316 16.746 16.072 26.964 24.772a18.424 18.424 0 0 0 11.937 4.387s14.531.741 19.175-9.915a249.956 249.956 0 0 0 20.138-61.624 9.342 9.342 0 0 1 2.981-5.269l6.8-6.008c3.924-3.467 8.159-9.278 8.282-15.191.19-9.154-1.772-15.7-6-20.013a18.274 18.274 0 0 0-11.22-5.214l-.7-16.17a61.245 61.245 0 1 0-21.151.343c-.011.184-1.491 27.471-1.491 27.471a13.2 13.2 0 0 0-4.86 4.779c-2.742 4.583-3.074 10.827-.985 18.558a10.678 10.678 0 0 1-1.295 7.551c-3.46 6.6-9.419 18.319-14.308 29.663-8.214-13.784-28.96-46.006-47.339-53.25a10.429 10.429 0 0 0-6.961-7.972 27.451 27.451 0 0 0-8.927-1.4 10.284 10.284 0 0 0-7.019 2.917 28.324 28.324 0 0 1-3.985-2.675 8.7 8.7 0 0 1-3.123-6.817v-17.367a36.161 36.161 0 0 0 14.752-19.471c4.576-.109 9.765-1.077 13.435-6.446a15.418 15.418 0 0 0 2.582-8.759V82.758c2.99-3.925 5.362-9.39 6.5-16.974 2.1-13.91-.41-25.11-7.448-33.289-9.333-10.845-23.738-12.885-29.031-13.268-11-16.4-36.442-8.322-37.56-7.956C85.094 23.2 78.43 49.944 77.685 64.821a20.127 20.127 0 0 0 5.57 15.008 20.461 20.461 0 0 0 4.92 3.811v11.4a15.419 15.419 0 0 0 2.583 8.76c2.863 4.188 6.817 6.45 13.335 6.45a36.178 36.178 0 0 0 16.107 20.311v11.445c0 5.751-3.84 12.307-8.811 14.247a10.29 10.29 0 0 0-6.672-2.6 27.633 27.633 0 0 0-8.928 1.4A10.446 10.446 0 0 0 88.64 165a30 30 0 0 0-19.5 10.965c-13.613 17-38.735 50.235-55.862 80.416a19.568 19.568 0 0 0 2.767 23.143c7.949 8.489 22.282 20.64 45.755 30.976zM213.769 67.75a54.266 54.266 0 1 1 54.266 54.265 54.327 54.327 0 0 1-54.266-54.265zm-25.893 102.841c16.759 8.744 37.887 42.233 45.055 55.273a3.5 3.5 0 0 0 3.069 1.814c.074 0 .148 0 .224-.007a3.5 3.5 0 0 0 3.034-2.21c5.059-12.845 12.655-27.818 16.732-35.6 1.584-3.023 3.192-7.668 1.852-12.626-3.327-12.313 1.663-15.145 3-15.666h14.642a6.21 6.21 0 0 1-.881 3.969c-.984 1.336-3 2.013-6.01 2.013a3.5 3.5 0 0 0 0 7c5.382 0 9.312-1.652 11.682-4.912 3.738-5.138 1.706-11.9 1.461-12.649a3.5 3.5 0 0 0-3.33-2.421H264l1.38-25.471v-.151c.88.038 5.718-.009 7.231-.122 0 .029.009.055.009.084v.148l.783 18.476a3.5 3.5 0 0 0 3.5 3.351c4.268 0 7.4 1.083 9.582 3.309 2.839 2.9 4.147 7.794 4 14.969-.071 3.42-3.024 7.533-5.919 10.091l-6.8 6.007a16.375 16.375 0 0 0-5.227 9.233c-6.177 33.151-17.381 55.475-19.462 59.665-3.542 7.133-12.97 6.156-12.97 6.156a11.421 11.421 0 0 1-7.4-2.716c-13.886-11.825-29.786-27.55-29.945-27.708a3.5 3.5 0 0 0-5.558.852l-3.359 6.36a47.668 47.668 0 0 1-2.015-5.019c0-.012-.011-.023-.015-.035-3.332-9.856-6.615-28.424-3.939-61.457zm.866 71.924q.34.614.69 1.189a15.208 15.208 0 0 1 2.207 9.381l-4.886 54.041a10.28 10.28 0 0 0 4.012 9.181 3.231 3.231 0 0 1 1.293 3.026c-1.106 7.175-5.573 7.228-6.395 7.171-.123-.014-6.4-.02-6.4-.02-2.684-40.343 4.557-69.455 9.479-83.969zm-6.849-147.476a8.465 8.465 0 0 1-1.361 4.809 7.928 7.928 0 0 1-6.222 3.378 36.247 36.247 0 0 0 .186-3.673v-7.878a24.867 24.867 0 0 0 7.4-2.736zm-85.356 4.809a8.461 8.461 0 0 1-1.362-4.809v-9.1a43.961 43.961 0 0 0 7.3.217v13.4a36.346 36.346 0 0 0 .186 3.678 7.832 7.832 0 0 1-6.124-3.386zm1.471-20.692a13.335 13.335 0 0 1-13.331-13.985c.8-15.984 8.193-37.156 38.859-47.247.227-.074 22.774-7.2 30.305 6.409a3.507 3.507 0 0 0 3.055 1.805c.164 0 16.544.188 25.779 10.96 5.625 6.56 7.576 15.861 5.8 27.643-1.671 11.1-6.262 17.579-13.98 19.731v-9.117c-.02-.946-.755-23.355-22.643-39.341a3.5 3.5 0 0 0-5.552 2.527c-.129 1.472-3.594 36.044-40.578 40.615zm11.464 20.4V85.687c30.323-5.105 39.828-28.987 42.663-40.426 14.709 13.371 15.341 29.509 15.361 30.17v24.122a29.012 29.012 0 1 1-58.024 0zm5.964 62.462c7.63-3.3 11.764-11.726 11.764-20.009v-8.261a35.908 35.908 0 0 0 23.924-.475v13.81a15.666 15.666 0 0 0 5.708 12.25 35.636 35.636 0 0 0 5.326 3.55c0 8.379-2.741 39.283-23.674 39.283S115 175.422 114.872 163.925c-.006-.52-.372-1.505.564-1.91zm-19.782 3.244a3.4 3.4 0 0 1 2.292-3.544 20.235 20.235 0 0 1 6.642-1.061 3.348 3.348 0 0 1 3.284 3.343c.149 13.578 3.43 45.161 30.612 45.161S168.947 177.58 169.1 164a3.347 3.347 0 0 1 3.284-3.347 20.32 20.32 0 0 1 6.641 1.06 3.4 3.4 0 0 1 2.293 3.545c-3.383 35.867-.09 56.546 3.474 67.808-4.413 10.806-15.729 44.026-12.528 93.417h-67.556c3.2-49.391-8.116-82.612-12.528-93.418 3.563-11.265 6.856-31.94 3.474-67.806zM97.7 326.484h-7.04c-1.567-.139-4.826-1.156-5.749-7.152a3.226 3.226 0 0 1 1.291-3.025 10.277 10.277 0 0 0 4.015-9.168l-4.888-54.066c-.306-3.251.621-8.083 2.9-10.558 4.919 14.514 12.16 43.627 9.471 83.969zM19.364 259.84c17.527-30.886 44.575-65.84 55.263-79.528 6.463-8.28 14.071-8.173 14.58-8.28 2.469 32.147-.774 50.316-4.061 60.027l-.011.025a48.006 48.006 0 0 1-1.922 4.825 36.718 36.718 0 0 0-3.026-4.6 3.5 3.5 0 0 0-4.346-.889c-23.58 12.408-28.7 31.65-28.908 32.463a3.5 3.5 0 0 0 1.122 3.527c17.213 14.663 28.185 26.221 34.358 33.335.065.075.144.129.214.2l.619 6.843a3.322 3.322 0 0 1-1.3 2.966 10.218 10.218 0 0 0-3.957 9.651 19.314 19.314 0 0 0 1.924 6.086H61.844a3.561 3.561 0 0 1-1.757-6.655 18.021 18.021 0 0 1 5.683-2.06 3.5 3.5 0 0 0 3.03-3.476v-6.1a3.5 3.5 0 0 0-2.13-3.221c-23.623-10.048-37.795-21.988-45.523-30.235a12.6 12.6 0 0 1-1.783-14.904zm58.994-6.125 3.226 35.685A357.034 357.034 0 0 0 54.4 263.618c1.763-4.527 7.407-15.887 22-24.5.908 1.485 1.956 3.4 3.031 5.54a21.88 21.88 0 0 0-1.073 9.057z" style="fill:#3c3c4f"/></g></svg>