<svg xmlns="http://www.w3.org/2000/svg" viewBox="0 0 512 512" style="enable-background:new 0 0 512 512" xml:space="preserve"><path style="fill:#8e3900" d="M431.303 431.303c-96.818 96.818-253.789 96.818-350.606 0s-96.818-253.789 0-350.606 253.789-96.818 350.606 0 96.817 253.789 0 350.606z"/><path style="fill:#6d2c00" d="M443.533 418.152a250.901 250.901 0 0 1-12.23 13.151c-96.818 96.818-253.789 96.818-350.606 0s-96.818-253.789 0-350.606a251.73 251.73 0 0 1 13.151-12.23C139.674 130.658 194.178 194.178 256 256s125.342 116.326 187.533 162.152z"/><path style="fill:#6d2c00" d="M80.697 431.303 431.303 80.697c96.818 96.818 96.818 253.789 0 350.606s-253.789 96.817-350.606 0z"/><path style="fill:#4f2000" d="M80.697 431.303 256 256c61.822 61.822 125.342 116.326 187.533 162.152a250.901 250.901 0 0 1-12.23 13.151c-96.817 96.817-253.789 96.817-350.606 0z"/><path style="fill:#8e3900" d="m497.243 198.781-35.907 30.652c-42.774 36.515-106.435 34.005-146.202-5.762l-26.804-26.804c-39.768-39.768-42.277-103.428-5.762-146.202l30.652-35.907c43.273 10.22 84.334 32.189 118.084 65.939s55.718 74.812 65.939 118.084z"/><path style="fill:#4f2000" d="M80.697 431.303c-33.75-33.75-55.72-74.811-65.939-118.084l35.907-30.652c42.774-36.515 106.435-34.005 146.202 5.762l26.804 26.804c39.768 39.768 42.277 103.427 5.762 146.202l-30.652 35.907c-43.273-10.22-84.334-32.19-118.084-65.939z"/><path style="fill:#bf4d00" d="m301.731 210.269-13.401-13.401C248.562 157.1 246.053 93.44 282.568 50.666l30.652-35.907c43.272 10.22 84.334 32.189 118.084 65.939L301.731 210.269z"/><path style="fill:#421b00" d="m210.269 301.731 13.401 13.401c39.768 39.768 42.277 103.427 5.762 146.202l-30.652 35.907c-43.272-10.22-84.334-32.189-118.084-65.939l129.573-129.571z"/><path style="fill:#fff" d="M270.49 459.143a8.084 8.084 0 0 1-7.774 8.383l-1.145.04a8.065 8.065 0 0 1-5.973-2.365 8.085 8.085 0 0 1 5.463-13.795l1.046-.036a8.082 8.082 0 0 1 8.383 7.773zm119.358-50.178c-2.808-3.46-7.902-4.001-11.371-1.19-25.306 20.512-55.632 34.493-87.701 40.429a8.086 8.086 0 0 0 2.943 15.899c34.715-6.426 67.543-21.56 94.939-43.767a8.085 8.085 0 0 0 1.19-11.371zM245.644 42.099c-.916.039-1.831.085-2.746.136a8.084 8.084 0 0 0-7.625 8.519 8.056 8.056 0 0 0 2.353 5.268 8.063 8.063 0 0 0 6.166 2.357c.846-.047 1.693-.089 2.541-.125a8.086 8.086 0 0 0-.689-16.155zm-37.482 4.948c-24.598 5.498-47.772 15.21-68.879 28.867a8.083 8.083 0 0 0-1.32 12.51 8.088 8.088 0 0 0 10.104 1.064c19.493-12.612 40.899-21.583 63.621-26.662a8.086 8.086 0 0 0 6.127-9.654 8.085 8.085 0 0 0-9.653-6.125z"/><path d="M437.019 74.981C388.667 26.628 324.379 0 256 0S123.333 26.628 74.981 74.981 0 187.62 0 256s26.628 132.667 74.981 181.019S187.62 512 256 512s132.667-26.628 181.019-74.981S512 324.379 512 256s-26.628-132.667-74.981-181.019zm-142.974 116.17c-36.536-36.536-38.878-95.939-5.33-135.237l27.344-32.031c37.708 9.69 73.499 28.664 103.705 56.921L301.732 198.836l-7.687-7.685zm137.152-98.914c28.26 30.208 47.233 65.996 56.923 103.703l-32.033 27.345c-39.298 33.547-98.702 31.205-135.237-5.33l-7.685-7.685L431.197 92.237zM298.12 19.994l-21.701 25.422c-18.985 22.239-28.806 50.578-27.654 79.795s13.173 56.696 33.849 77.371l7.685 7.685-34.272 34.272C199.94 187.908 149.513 128.883 105.966 68.895 149.632 33.824 202.805 16.281 256 16.281c14.099 0 28.197 1.248 42.12 3.713zM86.413 86.413a242.316 242.316 0 0 1 7.255-6.936c43.864 60.3 94.578 119.605 150.927 176.496l-34.326 34.326-7.685-7.685c-20.676-20.676-48.154-32.697-77.371-33.849-29.224-1.157-57.556 8.668-79.795 27.654L19.994 298.12c-13.2-74.565 8.93-154.217 66.419-211.707zm131.542 234.436c36.536 36.536 38.878 95.939 5.33 135.237l-27.345 32.033c-37.708-9.689-73.495-28.662-103.703-56.923L210.27 313.163l7.685 7.686zM80.803 419.763C52.543 389.555 33.57 353.767 23.88 316.06l32.033-27.345c39.298-33.547 98.701-31.205 135.237 5.33l7.685 7.685L80.803 419.763zm133.076 72.244 21.702-25.423c18.985-22.239 28.806-50.578 27.654-79.795-1.151-29.217-13.173-56.696-33.849-77.371l-7.685-7.685 34.326-34.326c56.89 56.349 116.196 107.063 176.496 150.927a242.316 242.316 0 0 1-6.936 7.255c-57.489 57.487-137.142 79.617-211.708 66.418zm229.226-85.973c-59.989-43.547-119.014-93.975-175.645-150.061l34.272-34.272 7.685 7.685c20.676 20.676 48.154 32.697 77.371 33.849 1.541.061 3.076.091 4.611.091 27.576 0 54.118-9.761 75.184-27.745l25.423-21.702c11.762 66.442-4.538 136.914-48.901 192.155z"/></svg>