<svg xmlns="http://www.w3.org/2000/svg" viewBox="0 0 512 512" style="enable-background:new 0 0 512 512" xml:space="preserve"><path style="fill:#bf4d00" d="M482.358 428.463H29.642c-11.906 0-21.558-9.651-21.558-21.558v-301.81c0-11.906 9.651-21.558 21.558-21.558h452.716c11.906 0 21.558 9.651 21.558 21.558v301.811c0 11.906-9.652 21.557-21.558 21.557z"/><path style="fill:#a54300" d="M256 428.463H29.642c-11.906 0-21.558-9.651-21.558-21.558v-301.81c0-11.906 9.651-21.558 21.558-21.558H256v344.926z"/><path d="M482.358 75.453H29.642C13.298 75.453 0 88.75 0 105.095v301.811c0 16.345 13.298 29.642 29.642 29.642h452.716c16.344 0 29.642-13.297 29.642-29.642V105.095c0-16.345-13.298-29.642-29.642-29.642zM264.084 210.904c21.418 3.83 37.726 22.594 37.726 45.096s-16.309 41.267-37.726 45.096v-90.192zM16.168 220.968H46.23c-8.612 9.165-13.894 21.493-13.894 35.032s5.282 25.866 13.894 35.032H16.168v-70.064zm0 86.232h67.368c28.231 0 51.2-22.969 51.2-51.2s-22.969-51.2-51.2-51.2H16.168v-26.947h67.368c43.091 0 78.147 35.056 78.147 78.147s-35.056 78.147-78.147 78.147H16.168V307.2zM48.505 256c0-16.535 11.515-30.431 26.947-34.09v68.18C60.02 286.431 48.505 272.535 48.505 256zm43.116 34.09v-68.18c15.432 3.658 26.947 17.555 26.947 34.09s-11.515 30.431-26.947 34.09zm156.295 11.006c-21.418-3.83-37.726-22.594-37.726-45.096s16.309-41.267 37.726-45.096v90.192zm0-106.55c-30.371 3.973-53.895 30.018-53.895 61.454s23.524 57.482 53.895 61.454v102.925H29.642c-7.43 0-13.474-6.044-13.474-13.474v-56.589h67.368c52.006 0 94.316-42.31 94.316-94.316s-42.31-94.316-94.316-94.316H16.168v-56.589c0-7.43 6.044-13.474 13.474-13.474h218.274v102.925zm247.916 96.486h-30.063c8.611-9.165 13.894-21.493 13.894-35.032s-5.282-25.866-13.894-35.032h30.063v70.064zm0-86.232h-67.368c-28.231 0-51.2 22.969-51.2 51.2s22.969 51.2 51.2 51.2h67.368v26.947h-67.368c-43.091 0-78.147-35.056-78.147-78.147s35.056-78.147 78.147-78.147h67.368V204.8zM463.495 256c0 16.535-11.515 30.431-26.947 34.09v-68.18c15.432 3.659 26.947 17.555 26.947 34.09zm-43.116-34.09v68.18c-15.432-3.658-26.947-17.555-26.947-34.09s11.515-30.431 26.947-34.09zm75.453-60.226h-67.368c-52.006 0-94.316 42.31-94.316 94.316s42.31 94.316 94.316 94.316h67.368v56.589c0 7.43-6.044 13.474-13.474 13.474H264.084V317.454c30.371-3.973 53.895-30.018 53.895-61.454s-23.524-57.482-53.895-61.454V91.621h218.274c7.43 0 13.474 6.044 13.474 13.474v56.589z"/></svg>