<svg xmlns="http://www.w3.org/2000/svg" width="256" height="256" xml:space="preserve"><path fill="#E0E0E0" d="m235.1 140.9-.3-.3-.2-.2c-.1-.1-.2-.2-.4-.3-.2-.2-.5-.3-.8-.4-.2-.1-.3-.1-.5-.2-.4-.1-.7-.2-1.1-.3l-11-2.1c-5.7-1.1-10.3-5.2-12-10.7l-11.2-36.5v-.1l-.1-.2c-.4-1.2-1-2.3-1.9-3.3-.5-.6-1.2-1.1-1.8-1.6-.1 0-.1-.1-.2-.1s-.1-.1-.2-.1c-.3-.2-.7-.4-1.1-.5h-.1c-.4-.2-.8-.3-1.2-.4l-.3-.1-20.3-4.8-7.6-1.7c-2-.4-4.1-.7-6.1-.7-4.7 0-9.3 1.2-13.5 3.4l-30 15.9c-3.6 1.9-6.2 5.3-7.1 9.4l-4.8 21.9c-.4 2 0 4 1.1 5.7l.9 1.2.3.3c.1.1.2.2.3.2.9.8 2.1 1.3 3.3 1.6.5.1 1 .2 1.5.2 2.2 0 4.2-1 5.6-2.5.8-.9 1.4-2.1 1.7-3.4l.6-2.6v-.4l2.7-12.5c.4-1.9 1.1-3.7 2.1-5.3 1.7-2.7 4.1-4.9 7-6.3l27.7-13.4-14.8 67.8c-.1.5-.2 1-.3 1.6v.4c0 .5-.1 1-.1 1.4v.5c0 .4 0 .9.1 1.3 0 .2 0 .3.1.5.1.4.1.8.2 1.2 0 .1 0 .2.1.3l-5.4 1.2 5.4-.9c.1.6 0 1.2 0 1.8l.6-.2.1.3-.7.3c-.3 1.4-.9 2.8-1.7 4.4-.1.3-.3.6-.3.7l-.2.4 4.4-2.8c.1.1.2.3.3.4l-5 3.4-13.1 37.4c-.8 2.3-1.6 4.6-2.5 6.9-1.3 3.6-2.6 7.3-3.8 10.9-3 9.2-2.4 13.8 2.3 16.9 1.9 1.3 4 1.9 6.1 1.9h.6c3.3-.2 6.1-2.5 7.3-5.8l20.4-59.5 13.1 12.5c4.7 4.5 6.9 10.9 6 17.3-.1.9-.3 1.8-.6 2.7l-6.2 22c-1.4 4.9 1.3 10.1 6.1 11.7l.9.3.2.1c.1 0 .3.1.3.1.1 0 .2 0 .4.1h.2c.2 0 .4 0 .6.1h.5c3.8 0 7.2-2.2 8.7-5.6.2-.5.4-1 .5-1.5l9.4-35.5c1.9-7 .4-14.4-3.9-20.2l-16.2-21.8 8.8-40.6.1-.3 4.1-17.7 6.4 18.6 4.4 12.7c2.2 6.2 7.3 10.8 13.7 12.3.4.1.9.2 1.3.3l13.6 2.2h.1l.6.1c.4.1.8.1 1.1.1.7 0 1.4-.1 2-.3.9-.3 1.8-.8 2.5-1.5s1.3-1.5 1.6-2.5v-.2s0-.2.1-.2l.1-.3c0-.1 0-.1.1-.3 0 0 .1-.5.1-.6v-.2c.2-2.4-.5-4.1-1.8-5.4z"/><path fill="#4A555F" d="M183.2 76.7c-13.4 0-24.3-10.9-24.3-24.3s10.9-24.3 24.3-24.3 24.3 10.9 24.3 24.3-10.9 24.3-24.3 24.3zm0-45.5c-11.7 0-21.2 9.5-21.2 21.2s9.5 21.2 21.2 21.2 21.2-9.5 21.2-21.2-9.5-21.2-21.2-21.2z"/><path fill="#4A555F" d="M177.8 256h-1c-.4 0-.7-.1-1.1-.1-.2 0-.5-.1-.8-.1-.1 0-.3-.1-.5-.1h-.1c-.2 0-.3-.1-.4-.1-.4-.1-.9-.2-1.3-.4-8.3-2.8-12.9-11.6-10.5-20l.1-.4 6.1-21.6c1.3-4.7 0-9.8-3.6-13.2l-5.4-5.1-17 49.4c-2 5.9-7.2 10-13.3 10.3-3.7.2-7.6-.8-10.9-3-10.7-7.2-6.7-19.5-4.9-24.7 1.2-3.7 2.6-7.5 3.9-11.1.8-2.3 1.6-4.5 2.4-6.8l13.5-39c.1-.4.3-.8.6-1.3.3-.7 1.1-2.4 1.1-3-.7-3.2-.6-6.4 0-9.6l11.8-54.2-15.1 7.3c-2.8 1.3-4.8 3.9-5.5 6.9l-3.4 15.5c-1.6 7.4-9 12.5-16.7 10.9-3.8-.8-7-2.9-9.1-6.1-2.1-3.2-2.8-7.1-2-10.8l4.8-21.9c1.3-6 5.2-11.1 10.6-13.9l30-15.9c7.3-3.9 16.1-5.1 24.2-3.3l7.6 1.7 20.5 4.8c.1 0 .2 0 .3.1 3.1.8 5.9 2.4 8 4.8 1.5 1.7 2.6 3.6 3.3 5.8l11.3 36.7c1 3.1 3.6 5.4 6.8 6.1l11.1 2.1c.8.1 1.5.4 2.3.7.4.1.7.3 1.1.5.5.3 1 .5 1.5.8.3.2.6.4.9.7.3.2.5.5.8.7 2.8 2.6 4.3 6.3 4.1 10.1v.5c0 .2 0 .4-.1.6 0 .2 0 .3-.1.5 0 .2-.1.4-.1.6 0 .2-.1.3-.1.5s-.1.4-.1.5c-.1.2-.1.4-.2.6-1.8 5.3-6.8 8.9-12.5 8.9-.7 0-1.3-.1-2.1-.2l-.4-.1-14-2.2c-9.4-1.5-17.2-8-20.3-17.1l-3.1-8.8-7.1 32.4 14.3 19.4c5.6 7.5 7.4 17 5 26l-9.4 35.5c-1.8 7.2-8.3 12.2-15.8 12.2zm-19.9-66.9 8.9 8.5c4.4 4.2 6.1 10.5 4.5 16.3l-6.2 22c-1.9 6.8 1.8 13.9 8.5 16.2.4.1.7.2 1.1.3l.3.1c.1 0 .3.1.4.1.3 0 .5.1.7.1.3 0 .6.1.9.1h.8c6 0 11.3-4.1 12.8-9.9l9.4-35.5c2.1-8.1.5-16.6-4.5-23.4l-15.2-20.5 8.6-39.3 1.2-5.3 6.7 19.3c2.7 7.9 9.6 13.7 17.9 15l14.3 2.3c.6.1 1.1.1 1.6.1 4.3 0 8.1-2.7 9.5-6.8 0-.1.1-.2.1-.3.1-.2.1-.4.1-.5V147.7c0-.1.1-.3.1-.4 0-.2 0-.3.1-.4 0-.2 0-.3.1-.5v-.4c.1-2.8-1-5.7-3.2-7.7l-.6-.6c-.2-.2-.5-.4-.7-.5-.4-.2-.8-.5-1.2-.7-.3-.1-.5-.2-.8-.3-.6-.2-1.2-.4-1.7-.5l-11.1-2.1c-4.3-.8-7.9-4-9.2-8.2L201 88.6c-.6-1.8-1.4-3.3-2.6-4.7-1.7-1.9-3.9-3.3-6.5-3.9h-.1l-20.5-4.8-7.6-1.7c-7.4-1.6-15.4-.5-22.1 3l-30 15.9c-4.6 2.4-7.9 6.7-9 11.8l-4.8 21.9c-.6 2.9-.1 5.9 1.6 8.4 1.6 2.5 4.2 4.2 7.1 4.8 6.1 1.2 11.8-2.8 13.1-8.5l3.4-15.5c.9-3.9 3.5-7.3 7.2-9.1l20.8-9.9-13.2 60.5c-.6 2.9-.6 5.8 0 8.7 0 .3 0 .6-.1.9l.3-.1v.2c0 .1.1.2.1.4l-.6.2c-.1.4-.3.8-.5 1.3l1.4-.5.1.4-1.7.6-.6 1.2-.5 1-13.6 38.8c-.8 2.3-1.6 4.6-2.5 6.8-1.3 3.6-2.7 7.3-3.9 11-2.6 7.9-4 16 3.7 21.1 2.5 1.7 5.3 2.6 8.1 2.6h.9c4.8-.3 8.9-3.5 10.5-8.2l19-54.1zm-17.6-12.4c-.1-.1-.2-.2-.2-.3l-.1-.1 2.4-2.1.3.4-2.4 2.1zm-1-1.3c-.1-.2-.3-.3-.4-.5l2.5-1.9c.1.1.2.3.3.4l-2.4 2zm-1-1.3c-.1-.2-.2-.4-.4-.6l2.6-1.7c.1.2.2.3.3.5l-2.5 1.8zm-.9-1.4 1.4-.8-1.4.8-.3-.6 2.8-1.5c.1.1.1.2.2.4l.1.1-2.8 1.6zm-.8-1.5-.1-.2c-.1-.1-.1-.2-.2-.3l2.9-1.3.2.4-2.8 1.4z"/><path fill="#4A555F" d="M183.2 76.7c-13.4 0-24.3-10.9-24.3-24.3s10.9-24.3 24.3-24.3 24.3 10.9 24.3 24.3-10.9 24.3-24.3 24.3zm0-45.5c-11.7 0-21.2 9.5-21.2 21.2s9.5 21.2 21.2 21.2 21.2-9.5 21.2-21.2-9.5-21.2-21.2-21.2z"/><path fill="#FFD552" d="M183.2 69.9c-9.7 0-17.5-7.9-17.5-17.5 0-9.7 7.9-17.5 17.5-17.5 9.7 0 17.5 7.9 17.5 17.5 0 9.7-7.8 17.5-17.5 17.5z"/><path fill="#4A555F" d="M177.8 256h-1c-.4 0-.7-.1-1.1-.1-.2 0-.5-.1-.8-.1-.1 0-.3-.1-.5-.1h-.1c-.2 0-.3-.1-.4-.1-.4-.1-.9-.2-1.3-.4-8.3-2.8-12.9-11.6-10.5-20l.1-.4 6.1-21.6c1.3-4.7 0-9.8-3.6-13.2l-23.1-22c-5.8-5.6-8.4-13.9-6.7-21.8l11.8-54.2-15.1 7.3c-2.8 1.3-4.8 3.9-5.5 6.9l-3.4 15.5c-1.6 7.4-9 12.5-16.7 10.9-3.8-.8-7-2.9-9.1-6.1-2.1-3.2-2.8-7.1-2-10.8l4.8-21.9c1.3-6 5.2-11.1 10.6-13.9l30-15.9c7.3-3.9 16.1-5.1 24.2-3.3l7.6 1.7 20.5 4.8c.1 0 .2 0 .3.1 3.1.8 5.9 2.4 8 4.8l.5.6-17.5 80.4 14.3 19.4c5.6 7.5 7.4 17 5 26l-9.4 35.5c-2 7-8.5 12-16 12zM151 96.3l-13.2 60.5c-1.5 6.8.7 14 5.8 18.8l23.1 22c4.4 4.2 6.1 10.5 4.5 16.3l-6.2 22c-1.9 6.8 1.8 13.9 8.5 16.2.4.1.7.2 1.1.3l.3.1c.1 0 .3.1.4.1.3 0 .5.1.7.1.3 0 .6.1.9.1h.8c6 0 11.3-4.1 12.8-9.9l9.4-35.5c2.1-8.1.5-16.6-4.5-23.4l-15.2-20.5 17.5-80.2c-1.6-1.6-3.7-2.8-5.9-3.3h-.1l-20.5-4.8-7.6-1.7c-7.4-1.6-15.4-.5-22.1 3l-30 15.9c-4.6 2.4-7.9 6.7-9 11.8l-4.8 21.9c-.6 2.9-.1 5.9 1.6 8.4 1.6 2.5 4.2 4.2 7.1 4.8 6.1 1.2 11.8-2.8 13.1-8.5l3.4-15.5c.9-3.9 3.5-7.3 7.2-9.1l20.9-9.9z"/><path fill="#4A555F" d="M177.8 256h-1c-.4 0-.7-.1-1.1-.1-.2 0-.5-.1-.8-.1-.1 0-.3-.1-.5-.1h-.1c-.2 0-.3-.1-.4-.1-.4-.1-.9-.2-1.3-.4-8.3-2.8-12.9-11.6-10.5-20l.1-.4 6.1-21.6c1.3-4.7 0-9.8-3.6-13.2l-23.1-22c-5.8-5.6-8.4-13.9-6.7-21.8l11.8-54.2-15.1 7.3c-2.8 1.3-4.8 3.9-5.5 6.9l-3.4 15.5c-1.6 7.4-9 12.5-16.7 10.9-3.8-.8-7-2.9-9.1-6.1-2.1-3.2-2.8-7.1-2-10.8l4.8-21.9c1.3-6 5.2-11.1 10.6-13.9l30-15.9c7.3-3.9 16.1-5.1 24.2-3.3l7.6 1.7 20.5 4.8c.1 0 .2 0 .3.1 3.1.8 5.9 2.4 8 4.8l.5.6-17.5 80.4 14.3 19.4c5.6 7.5 7.4 17 5 26l-9.4 35.5c-2 7-8.5 12-16 12zM151 96.3l-13.2 60.5c-1.5 6.8.7 14 5.8 18.8l23.1 22c4.4 4.2 6.1 10.5 4.5 16.3l-6.2 22c-1.9 6.8 1.8 13.9 8.5 16.2.4.1.7.2 1.1.3l.3.1c.1 0 .3.1.4.1.3 0 .5.1.7.1.3 0 .6.1.9.1h.8c6 0 11.3-4.1 12.8-9.9l9.4-35.5c2.1-8.1.5-16.6-4.5-23.4l-15.2-20.5 17.5-80.2c-1.6-1.6-3.7-2.8-5.9-3.3h-.1l-20.5-4.8-7.6-1.7c-7.4-1.6-15.4-.5-22.1 3l-30 15.9c-4.6 2.4-7.9 6.7-9 11.8l-4.8 21.9c-.6 2.9-.1 5.9 1.6 8.4 1.6 2.5 4.2 4.2 7.1 4.8 6.1 1.2 11.8-2.8 13.1-8.5l3.4-15.5c.9-3.9 3.5-7.3 7.2-9.1l20.9-9.9z"/><path fill="#4A555F" d="M127.9 254.6c-3.4 0-6.9-1.1-9.9-3.1-10.7-7.2-6.7-19.5-4.9-24.7 1.2-3.7 2.6-7.5 3.9-11.1.8-2.3 1.6-4.5 2.4-6.8L133 170c.1-.4.3-.8.6-1.3.3-.7 1.1-2.4 1.1-3l3.1-.5c.8 4 2.9 7.6 5.8 10.4l16.7 15.9-18.1 52.7c-2 5.9-7.2 10-13.3 10.3-.3.1-.6.1-1 .1zm8.3-84.2c-.1.2-.2.5-.3.6l-13.6 38.8c-.8 2.3-1.6 4.6-2.5 6.8-1.3 3.6-2.7 7.3-3.9 11-2.6 7.9-4 16 3.7 21.1 2.5 1.7 5.3 2.6 8.1 2.6h.9c4.8-.3 8.9-3.5 10.5-8.2l17.4-50.8-15.2-14.5c-2-2.1-3.8-4.6-5.1-7.4zM183.2 76.7c-13.4 0-24.3-10.9-24.3-24.3 0-7.7 3.6-14.8 9.8-19.5 1.3-.9 2.6-1.8 4-2.4 3.3-1.6 6.8-2.4 10.5-2.4 4.5 0 8.8 1.2 12.6 3.5.3.2.7.4 1 .6 6.7 4.5 10.7 12.1 10.7 20.2 0 5.8-2.1 11.5-5.9 15.9-1.2 1.4-2.5 2.6-3.9 3.6-.9.7-1.9 1.3-3 1.9-.7.4-1.4.7-2.1 1-.4.2-.7.3-1.1.4-2.6 1-5.4 1.5-8.3 1.5zm0-45.5c-3.2 0-6.3.7-9.2 2.1-1.2.6-2.4 1.3-3.5 2.1-5.4 4-8.5 10.2-8.5 17 0 11.7 9.5 21.2 21.2 21.2 2.5 0 5-.4 7.3-1.3.3-.1.6-.2 1-.4.6-.3 1.3-.6 1.9-.9.9-.5 1.8-1 2.6-1.7 1.2-.9 2.3-2 3.4-3.1 3.3-3.8 5.1-8.8 5.1-13.8 0-7-3.5-13.6-9.3-17.6l-.9-.6c-3.4-1.9-7.2-3-11.1-3z"/><path fill="#4A555F" d="M177.8 256h-1c-.4 0-.7-.1-1.1-.1-.2 0-.5-.1-.8-.1-.1 0-.3-.1-.5-.1h-.1c-.2 0-.3-.1-.4-.1-.1 0-.3-.1-.4-.1l-.4-.1c-.2 0-.3-.1-.5-.1-2.7-.9-5.2-2.6-7.1-4.8-.5-.6-1-1.2-1.4-1.8-.8-1.3-1.5-2.7-2-4.1-.3-1-.5-2-.6-3-.1-.5-.1-1-.1-1.6 0-1.1.1-2.1.3-3.2.1-.5.2-1.1.4-1.6l.1-.4 6.1-21.6c.3-1.2.5-2.4.5-3.6 0-3.7-1.5-7.2-4.1-9.7l-5.4-5.1-17 49.4c-2 5.9-7.2 10-13.3 10.3h-1.1c-1.7 0-3.4-.3-5.1-.8-1.7-.5-3.3-1.3-4.8-2.3-.9-.6-1.7-1.2-2.4-1.9-2.8-2.7-4.4-6.1-4.7-10.1v-.8c-.1-4.2 1.1-8.6 2.2-11.8l1.5-4.5c.5-1.5 1.1-3 1.6-4.5l.8-2.1c.8-2.3 1.6-4.5 2.4-6.8L133 170c.1-.3.3-.8.6-1.3.4-.8 1.1-2.3 1.1-3v-.1c-.2-1-.3-2-.4-2.9V158.9c0-.3.1-.6.1-.9v-.1c0-.1 0-.3.1-.4.1-.5.2-.9.3-1.4l11.8-54.2-15.1 7.3c-2.8 1.3-4.8 3.9-5.5 6.9l-3.4 15.5c-.3 1.2-.7 2.4-1.3 3.5-.9 1.8-2.2 3.3-3.8 4.6-1.2 1-2.6 1.8-4.1 2.3-2 .7-4.1 1-6.2.7-.5 0-.9-.1-1.4-.2-1.9-.4-3.7-1.1-5.3-2.2-1.1-.7-2.1-1.7-2.9-2.7-.1-.1-.2-.2-.2-.3l-.1-.1c-1.1-1.4-1.8-2.9-2.3-4.6-.7-2.3-.8-4.7-.3-7.1l4.8-21.9c.8-3.7 2.6-7.1 5.2-9.8 1.6-1.7 3.4-3 5.4-4.1l30-15.9c2.3-1.2 4.7-2.2 7.2-2.9.5-.1 1-.3 1.5-.4 5.1-1.2 10.4-1.2 15.4-.1l7.6 1.7 20.7 4.9h.1c2.3.6 4.5 1.7 6.3 3.2.3.3.6.5.9.8.3.3.6.6.8.9 1.5 1.7 2.6 3.6 3.3 5.8l11.3 36.7c1 3.1 3.6 5.4 6.8 6.1l11.1 2.1c.8.1 1.5.4 2.3.7.4.1.7.3 1.1.5.5.3 1 .5 1.5.8.3.2.6.4.9.7.3.2.5.5.8.7 2.8 2.6 4.3 6.3 4.1 10.1v.5c0 .2 0 .4-.1.6 0 .2 0 .3-.1.5 0 .2-.1.4-.1.6 0 .2-.1.3-.1.5s-.1.4-.1.5c-.1.2-.1.4-.2.6-1.8 5.3-6.8 8.9-12.5 8.9-.7 0-1.3-.1-2.1-.2l-.4-.1-14-2.2c-9.4-1.5-17.2-8-20.3-17.1l-3.1-8.8-7.1 32.4 14.3 19.4c.7.9 1.3 1.9 1.9 2.9.5.8.9 1.6 1.3 2.6.4.8.6 1.4.9 2.1 1.6 4.2 2.2 8.9 1.8 13.4-.1.6-.1 1.1-.2 1.7-.2 1.1-.4 2.3-.7 3.4l-9.4 35.5c-1.7 7.2-8.2 12.2-15.7 12.2zm-19.9-66.9 8.9 8.5c3.2 3.1 5.1 7.4 5.1 11.9 0 1.5-.2 3-.6 4.4l-6.2 22c-.1.4-.2.9-.3 1.3-.2.8-.2 1.7-.2 2.6 0 .4 0 .8.1 1.3.1.8.3 1.6.5 2.4.4 1.2.9 2.3 1.6 3.3.3.4.7.9 1.1 1.4 1.6 1.8 3.5 3.1 5.7 3.8.1 0 .2.1.3.1l.5.1c.1 0 .2.1.3.1l.2.1c.2 0 .4.1.5.1.3 0 .5.1.7.1.3 0 .6.1.9.1h.8c6 0 11.3-4.1 12.8-9.9l9.4-35.5c.3-1 .5-2 .6-3 .1-.5.1-1 .2-1.5.4-4.1-.2-8.2-1.6-12-.2-.6-.5-1.2-.8-1.9-.4-.9-.8-1.6-1.2-2.3-.5-.9-1.1-1.8-1.7-2.6l-15.2-20.5 8.5-39.2 1.2-5.3 1.8 5.1 4.9 14.1c2.7 7.9 9.6 13.7 17.9 15l14.3 2.3c.6.1 1.1.1 1.6.1 4.3 0 8.1-2.7 9.5-6.8 0-.1.1-.2.1-.3.1-.2.1-.4.1-.5V147.7c0-.1.1-.3.1-.4 0-.2 0-.3.1-.4 0-.2 0-.3.1-.5v-.4c.1-2.8-1-5.7-3.2-7.7l-.6-.6c-.2-.2-.5-.4-.7-.5-.4-.2-.7-.5-1.2-.7-.3-.1-.5-.2-.8-.3-.6-.2-1.2-.4-1.7-.5l-11.1-2.1c-4.3-.8-7.9-4-9.2-8.2l-11-36.8c-.6-1.8-1.4-3.3-2.6-4.7-.2-.2-.4-.5-.7-.7-.2-.2-.5-.4-.7-.6-1.5-1.2-3.2-2.1-5.1-2.6l-5-1.2-15.7-3.7-7.6-1.7c-4.6-1-9.5-1-14.1.1-.5.1-.9.2-1.4.3-2.3.6-4.5 1.5-6.6 2.6l-30 15.9c-1.7.9-3.2 2.1-4.6 3.5-2.2 2.3-3.7 5.2-4.4 8.4l-4.8 21.9c-.4 1.8-.3 3.7.2 5.5.4 1.3 1 2.5 1.8 3.6l.1.1.2.2c.7.8 1.4 1.5 2.3 2.1 1.2.8 2.6 1.4 4.1 1.7.4.1.7.1 1.1.2 1.6.2 3.3 0 4.8-.6 1.2-.4 2.3-1 3.2-1.8 1.2-1 2.2-2.2 2.9-3.6.4-.9.8-1.8 1-2.7l3.4-15.5c.9-3.9 3.5-7.3 7.2-9.1l21-9.9-13.2 60.5c-.1.4-.2.8-.2 1.2l-.1.4c0 .3-.1.5-.1.8v3.2c0 .5.1 1 .2 1.5l.3-.1-.1 1.5v.8l-.1.8h-.1c-.3.9-.7 1.9-1.2 3l-.5 1-13.6 38.8c-.8 2.3-1.6 4.5-2.4 6.8l-.8 2.1c-.5 1.5-1.1 3-1.6 4.5l-1.5 4.5c-1 3-2.1 7-2 10.8v.7c.2 3.3 1.4 5.9 3.7 8.1.6.6 1.3 1.1 2 1.6 1.3.8 2.6 1.5 4 1.9 1.6.5 3.4.7 5 .6 4.8-.3 8.9-3.5 10.5-8.2l18.7-54z"/><path fill="#4A555F" d="M105.3 254.2H12.1V0h178.7v19h-3.2V3.1H15.3v248h90z"/><g><path fill="#F68F6F" d="M18.9 6.8v240.6h84.8c-.9-2.3-1.4-4.8-1.6-7.4 0-.4-.1-.8-.1-1.2-.2-5.7 1.3-10.9 2.6-14.9.5-1.6 1.1-3.1 1.6-4.7.5-1.5 1.1-3 1.6-4.6l.9-2.4c.8-2.2 1.6-4.3 2.3-6.5l13.6-38.8c.3-.8.6-1.5.9-2.2 0 0 0-.1.1-.1-.1-.5-.1-1-.1-1.4v-.4c0-.5 0-.9-.1-1.3v-1.8c0-.3 0-.7.1-1 0-.3 0-.6.1-.8 0-.4.1-.8.1-1.2 0 0 .1-.5.1-.7.1-.6.2-1.3.4-1.9l3.3-15.1-.1.1c-1.5 2.9-3.6 5.4-6.1 7.5-2 1.6-4.3 2.9-6.7 3.7-2.5.9-5.1 1.3-7.7 1.3-.8 0-1.5 0-2.3-.1-.8-.1-1.5-.2-2.3-.3-3.1-.6-6-1.8-8.6-3.6-1.8-1.2-3.4-2.7-4.8-4.4-.2-.2-.3-.4-.5-.6l-.1-.1c-1.7-2.2-3-4.7-3.8-7.4-1.1-3.7-1.3-7.7-.4-11.5l4.8-22c1.2-5.3 3.7-10.1 7.4-14.1 2.2-2.4 4.8-4.3 7.7-5.8L136 66c2.9-1.5 5.9-2.7 9.1-3.6.6-.2 1.3-.3 1.9-.5 1.4-.3 2.8-.6 4.3-.7-.8-2.8-1.2-5.7-1.2-8.7 0-10.4 5-20.4 13.3-26.6 1.7-1.3 3.5-2.4 5.5-3.3 4.5-2.2 9.4-3.3 14.4-3.3h.7V6.8H18.9zM76.6 91V78H49.9V61.3h26.7v-13l23.7 21.3L76.6 91z"/></g><g><path fill="#4A555F" d="M75.1 94.5V79.6H48.3V59.8H75v-15l27.6 24.8-27.5 24.9zm-23.6-18h26.7v11L98 69.7 78.2 51.9v11H51.5v13.6z"/></g><g><path fill="#71CDE1" d="M81.9 72.8v6.4l10.6-9.5-10.6-9.6v6.5H55.2v6.2z"/></g><g><path fill="#4A555F" d="m211.1 213.1-3-.8c3.2-12 1.3-20.7-.9-25.9-2.4-5.6-5.6-8.5-5.6-8.5l2.1-2.4c.5.5 14 12.8 7.4 37.6z"/></g></svg>