<svg xmlns="http://www.w3.org/2000/svg" viewBox="0 0 512.001 512.001" style="enable-background:new 0 0 512.001 512.001" xml:space="preserve"><path style="fill:#f99900" d="M439.243 180.548c5.953 0 10.779 4.826 10.779 10.779v291.032c0 11.906-9.651 21.558-21.558 21.558H83.537c-11.906 0-21.558-9.651-21.558-21.558V191.327c0-5.953 4.826-10.779 10.779-10.779h10.779c23.812 0 43.116-19.304 43.116-43.116v-97.01l75.453-32.337h107.789l75.453 32.337v97.011c0 23.812 19.304 43.116 43.116 43.116h10.779z"/><path style="fill:#007dbc" d="M399.961 169.77c-14.023 0-25.392 11.369-25.392 25.392v308.755H137.432V195.161c0-14.023-11.369-25.392-25.392-25.392 8.956-7.901 14.613-19.455 14.613-32.337v-97.01l43.116-18.478V56.97c0 51.27 37.296 93.806 86.232 102.021 48.936-8.215 86.232-50.749 86.232-102.021V21.944l43.116 18.478v97.011c-.001 12.882 5.656 24.436 14.612 32.337z"/><path style="fill:#004859" d="M202.106 61.98V8.085h107.789V61.98c0 32.044-23.309 58.629-53.895 63.763-30.585-5.134-53.894-31.719-53.894-63.763z"/><path style="fill:#f99900" d="M314.167 207.072c3.357-.702 6.507 1.838 6.507 5.267v47.723c0 3.429-3.152 5.968-6.507 5.267-17.901-3.744-37.55-5.813-58.166-5.813s-40.265 2.07-58.166 5.813c-3.357.702-6.507-1.838-6.507-5.267v-47.723c0-3.429 3.152-5.968 6.507-5.267 17.901 3.744 37.55 5.813 58.166 5.813s40.264-2.069 58.166-5.813z"/><path d="M439.243 172.464h-10.779c-19.317 0-35.032-15.716-35.032-35.032v-97.01a8.084 8.084 0 0 0-4.9-7.431l-42.963-18.413a8.873 8.873 0 0 0-.312-.135L313.244.723A8.049 8.049 0 0 0 309.921 0h-107.84a8.044 8.044 0 0 0-3.322.723l-32.013 13.721a7.196 7.196 0 0 0-.313.135L123.47 32.991a8.084 8.084 0 0 0-4.901 7.431v97.011c0 19.316-15.716 35.032-35.032 35.032H72.758c-10.401 0-18.863 8.463-18.863 18.863V482.36c0 16.345 13.297 29.642 29.642 29.642h344.926c16.344 0 29.642-13.297 29.642-29.642V191.327c.001-10.4-8.462-18.863-18.862-18.863zM210.19 16.17h91.621v45.81c0 27.285-19.184 50.433-45.811 55.549-26.626-5.117-45.811-28.265-45.811-55.549V16.17zm-32.337 11.105 16.168-6.93V61.98c0 35.668 25.503 65.837 60.64 71.735a8.066 8.066 0 0 0 2.676 0c35.138-5.898 60.641-36.067 60.641-71.735V20.345l16.168 6.93v29.696c0 46.31-32.782 85.548-78.147 93.813-45.365-8.265-78.147-47.503-78.147-93.813V27.275zm-48.505 468.558H83.537c-7.43 0-13.474-6.044-13.474-13.474V191.327a2.699 2.699 0 0 1 2.695-2.695h10.779c11.704 0 22.501-3.946 31.135-10.58 8.299 1.271 14.676 8.459 14.676 17.108v300.673zm237.137-300.672v300.671H145.516V195.161c0-13.228-7.712-24.688-18.876-30.122a50.9 50.9 0 0 0 8.097-27.607v-91.68l26.947-11.549V56.97c0 26.542 9.483 52.256 26.703 72.408 17.022 19.921 40.559 33.268 66.274 37.585a8.066 8.066 0 0 0 2.676 0c25.715-4.316 49.251-17.665 66.274-37.585 17.22-20.15 26.704-45.865 26.704-72.406V34.204l26.947 11.549v91.68a50.9 50.9 0 0 0 8.097 27.607c-11.162 5.432-18.874 16.894-18.874 30.121zm75.452 287.198c0 7.43-6.044 13.474-13.474 13.474h-45.811V195.161c0-8.649 6.377-15.836 14.676-17.108 8.634 6.633 19.431 10.58 31.135 10.58h10.779a2.698 2.698 0 0 1 2.695 2.695v291.031zM296.422 331.454v25.675c0 7.191-3.996 13.656-10.428 16.871l-52.756 26.378a2.68 2.68 0 0 0-1.49 2.41v14.897a2.699 2.699 0 0 0 2.695 2.695h43.116a2.698 2.698 0 0 0 2.695-2.695c0-4.465 3.618-8.084 8.084-8.084s8.084 3.62 8.084 8.084c0 10.401-8.463 18.863-18.863 18.863h-43.116c-10.401 0-18.863-8.463-18.863-18.863v-14.897c0-7.191 3.996-13.655 10.428-16.871l52.755-26.378a2.678 2.678 0 0 0 1.491-2.41v-25.675c0-7.43-6.044-13.474-13.474-13.474h-21.558c-7.43 0-13.474 6.044-13.474 13.474a8.084 8.084 0 0 1-16.168 0c0-16.345 13.297-29.642 29.642-29.642h21.558c16.344 0 29.642 13.296 29.642 29.642zm27.366-129.562a13.443 13.443 0 0 0-11.276-2.732c-17.905 3.744-36.917 5.642-56.512 5.642-19.594 0-38.607-1.898-56.512-5.642-4-.833-8.11.16-11.276 2.732a13.407 13.407 0 0 0-4.97 10.447v47.722c0 4.072 1.812 7.88 4.97 10.447a13.45 13.45 0 0 0 11.277 2.732c17.904-3.744 36.917-5.642 56.511-5.642 19.595 0 38.607 1.898 56.512 5.642a13.431 13.431 0 0 0 11.276-2.732 13.404 13.404 0 0 0 4.97-10.447v-47.722c0-4.073-1.812-7.881-4.97-10.447zM312.59 256.76c-18.036-3.538-37.056-5.329-56.589-5.329s-38.554 1.793-56.589 5.33V215.64c18.036 3.538 37.056 5.33 56.589 5.33s38.554-1.793 56.589-5.329v41.119z"/></svg>