<svg xmlns="http://www.w3.org/2000/svg" viewBox="0 0 511.999 511.999" style="enable-background:new 0 0 511.999 511.999" xml:space="preserve"><path style="fill:#6e4c4b" d="M218.835 276.261h74.783v171.13h-74.783z"/><circle style="fill:#f9be00" cx="255.999" cy="163.924" r="155.905"/><path style="opacity:.2;enable-background:new" d="M370.84 160.577c13.63-3.653 27.635-3.874 41.011-.814a157.215 157.215 0 0 0-1.329-16.64c-14.395-2.547-29.294-1.934-43.834 1.963-23.547 6.309-43.591 20.559-57.233 40.448l-41.552-23.99L341.719 33.69a155.672 155.672 0 0 0-13.824-8.131l-73.879 127.965-43.433-25.076c17.372-36.421 11.032-78.971-13.906-108.734a155.16 155.16 0 0 0-15.058 7.158c22.996 24.831 29.561 61.806 15.012 93.521l-71.474-41.265a155.93 155.93 0 0 0-8.038 13.877l71.492 41.276c-20.185 28.448-55.476 41.247-88.467 33.764.146 5.624.598 11.17 1.323 16.63a100.935 100.935 0 0 0 17.436 1.528c32.527 0 64.262-15.664 83.651-43.871l43.441 25.081-73.876 127.96a155.798 155.798 0 0 0 13.942 7.926l73.823-127.867 41.531 23.977c-10.405 21.762-12.7 46.253-6.388 69.802 3.898 14.547 10.826 27.76 20.237 38.956a155.125 155.125 0 0 0 15.076-7.16c-9.349-10.058-16.167-22.305-19.821-35.945-5.2-19.409-3.452-39.574 4.841-57.601l71.481 41.271a156.059 156.059 0 0 0 8.039-13.878l-71.501-41.281c11.464-16.199 28.053-27.797 47.461-32.996z"/><path style="fill:#f9be00" d="M358.91 474.847v-80.188c0-6.042-4.942-10.985-10.985-10.985h-183.39c-6.041 0-10.985 4.943-10.985 10.985v80.188h205.36z"/><path style="fill:#b88c1d" d="M373.015 503.981c8.044 0 14.566-6.523 14.566-14.567 0-8.045-6.522-14.567-14.566-14.567H138.981c-8.043 0-14.566 6.522-14.566 14.567 0 8.044 6.523 14.567 14.566 14.567h234.034z"/><path style="fill:#6e4c4b" d="M311.667 410.82c0-3.02-2.472-5.492-5.493-5.492h-99.886c-3.021 0-5.493 2.471-5.493 5.492v36.88c0 3.02 2.472 5.492 5.493 5.492h99.886c3.021 0 5.493-2.472 5.493-5.492v-36.88z"/><path style="opacity:.2;enable-background:new" d="M278.2 437.278h-44.402c-4.43 0-8.019-3.59-8.019-8.019s3.589-8.019 8.019-8.019H278.2c4.43 0 8.019 3.59 8.019 8.019s-3.59 8.019-8.019 8.019z"/><circle style="opacity:.2;enable-background:new" cx="153.552" cy="221.124" r="8.147"/><circle style="opacity:.2;enable-background:new" cx="275.843" cy="212.977" r="8.147"/><circle style="opacity:.2;enable-background:new" cx="246.655" cy="55.126" r="8.147"/><circle style="opacity:.2;enable-background:new" cx="175.716" cy="72.799" r="8.148"/><circle style="opacity:.2;enable-background:new" cx="252.931" cy="299.099" r="8.147"/><circle style="opacity:.2;enable-background:new" cx="272.71" cy="276.261" r="8.147"/><circle style="fill:#fff" cx="323.025" cy="84.785" r="33.049"/><path style="fill:#1e252b" d="M306.173 397.31h-99.886c-7.451 0-13.512 6.061-13.512 13.511v36.88c0 7.45 6.061 13.511 13.512 13.511h99.886c7.451 0 13.512-6.061 13.512-13.511v-36.88c0-7.451-6.061-13.511-13.512-13.511zm-2.525 47.863h-94.834v-31.827h94.834v31.827zm69.367 21.655h-6.086v-72.17c0-10.479-8.525-19.003-19.003-19.003h-46.285v-54.271c68.252-19.816 118.287-82.9 118.287-157.456C419.927 73.537 346.389 0 255.998 0S92.071 73.537 92.071 163.927c0 74.726 50.26 137.931 118.748 157.594v54.133h-46.285c-10.479 0-19.003 8.526-19.003 19.003v72.17h-6.55c-12.453 0-22.585 10.131-22.585 22.586 0 12.454 10.132 22.586 22.585 22.586h234.035c12.453 0 22.585-10.132 22.585-22.586-.001-12.454-10.133-22.585-22.586-22.585zM108.108 163.927c0-81.546 66.343-147.89 147.89-147.89s147.891 66.344 147.891 147.89c0 81.547-66.344 147.891-147.891 147.891s-147.89-66.343-147.89-147.891zm177.494 161.244v50.483h-58.745V325.26a164.274 164.274 0 0 0 29.141 2.596c10.106 0 19.999-.925 29.604-2.685zm-124.034 69.487c0-1.608 1.359-2.966 2.966-2.966h183.39c1.608 0 2.966 1.359 2.966 2.966v72.17H161.568v-72.17zm211.447 101.305H138.981a6.556 6.556 0 0 1-6.548-6.549 6.555 6.555 0 0 1 6.548-6.549h234.035a6.555 6.555 0 0 1 6.548 6.549c-.001 3.61-2.938 6.549-6.549 6.549z"/></svg>